<svg width="179" height="40" viewBox="0 0 179 40" fill="none" xmlns="http://www.w3.org/2000/svg">
<path d="M65.5078 16.6016H62.0859C62.0234 16.1589 61.8958 15.7656 61.7031 15.4219C61.5104 15.0729 61.263 14.776 60.9609 14.5312C60.6589 14.2865 60.3099 14.099 59.9141 13.9687C59.5234 13.8385 59.099 13.7734 58.6406 13.7734C57.8125 13.7734 57.0911 13.9792 56.4766 14.3906C55.862 14.7969 55.3854 15.3906 55.0469 16.1719C54.7083 16.9479 54.5391 17.8906 54.5391 19C54.5391 20.1406 54.7083 21.099 55.0469 21.875C55.3906 22.651 55.8698 23.237 56.4844 23.6328C57.099 24.0286 57.8099 24.2266 58.6172 24.2266C59.0703 24.2266 59.4896 24.1667 59.875 24.0469C60.2656 23.9271 60.612 23.7526 60.9141 23.5234C61.2161 23.2891 61.4661 23.0052 61.6641 22.6719C61.8672 22.3385 62.0078 21.9583 62.0859 21.5312L65.5078 21.5469C65.4193 22.2812 65.1979 22.9896 64.8438 23.6719C64.4948 24.349 64.0234 24.9557 63.4297 25.4922C62.8411 26.0234 62.138 26.4453 61.3203 26.7578C60.5078 27.0651 59.5885 27.2187 58.5625 27.2187C57.1354 27.2187 55.8594 26.8958 54.7344 26.25C53.6146 25.6042 52.7292 24.6693 52.0781 23.4453C51.4323 22.2214 51.1094 20.7396 51.1094 19C51.1094 17.2552 51.4375 15.7708 52.0938 14.5469C52.75 13.3229 53.6406 12.3906 54.7656 11.75C55.8906 11.1042 57.1563 10.7812 58.5625 10.7812C59.4896 10.7812 60.349 10.9115 61.1406 11.1719C61.9375 11.4323 62.6432 11.8125 63.2578 12.3125C63.8724 12.8073 64.3724 13.4141 64.7578 14.1328C65.1484 14.8516 65.3984 15.6745 65.5078 16.6016ZM71.293 27.2266C70.5273 27.2266 69.8451 27.0938 69.2461 26.8281C68.6471 26.5573 68.1732 26.1589 67.8242 25.6328C67.4805 25.1016 67.3086 24.4401 67.3086 23.6484C67.3086 22.9818 67.431 22.4219 67.6758 21.9687C67.9206 21.5156 68.2539 21.151 68.6758 20.875C69.0977 20.599 69.5768 20.3906 70.1133 20.25C70.6549 20.1094 71.2227 20.0104 71.8164 19.9531C72.5143 19.8802 73.0768 19.8125 73.5039 19.75C73.931 19.6823 74.2409 19.5833 74.4336 19.4531C74.6263 19.3229 74.7227 19.1302 74.7227 18.875V18.8281C74.7227 18.3333 74.5664 17.9505 74.2539 17.6797C73.9466 17.4089 73.5091 17.2734 72.9414 17.2734C72.3424 17.2734 71.8659 17.4062 71.5117 17.6719C71.1576 17.9323 70.9232 18.2604 70.8086 18.6562L67.7305 18.4062C67.8867 17.6771 68.194 17.0469 68.6523 16.5156C69.1107 15.9792 69.7018 15.5677 70.4258 15.2812C71.1549 14.9896 71.9987 14.8438 72.957 14.8438C73.6237 14.8438 74.2617 14.9219 74.8711 15.0781C75.4857 15.2344 76.0299 15.4766 76.5039 15.8047C76.9831 16.1328 77.3607 16.5547 77.6367 17.0703C77.9128 17.5807 78.0508 18.1927 78.0508 18.9062V27H74.8945V25.3359H74.8008C74.6081 25.7109 74.3503 26.0417 74.0273 26.3281C73.7044 26.6094 73.3164 26.8307 72.8633 26.9922C72.4102 27.1484 71.8867 27.2266 71.293 27.2266ZM72.2461 24.9297C72.7357 24.9297 73.168 24.8333 73.543 24.6406C73.918 24.4427 74.2122 24.1771 74.4258 23.8438C74.6393 23.5104 74.7461 23.1328 74.7461 22.7109V21.4375C74.6419 21.5052 74.4987 21.5677 74.3164 21.625C74.1393 21.6771 73.9388 21.7266 73.7148 21.7734C73.4909 21.8151 73.2669 21.8542 73.043 21.8906C72.819 21.9219 72.6159 21.9505 72.4336 21.9766C72.043 22.0339 71.7018 22.125 71.4102 22.25C71.1185 22.375 70.8919 22.5443 70.7305 22.7578C70.569 22.9661 70.4883 23.2266 70.4883 23.5391C70.4883 23.9922 70.6523 24.3385 70.9805 24.5781C71.3138 24.8125 71.7357 24.9297 72.2461 24.9297ZM80.6328 31.5V15H83.9141V17.0156H84.0625C84.2083 16.6927 84.4193 16.3646 84.6953 16.0312C84.9766 15.6927 85.3411 15.4115 85.7891 15.1875C86.2422 14.9583 86.8047 14.8438 87.4766 14.8438C88.3516 14.8438 89.1589 15.0729 89.8984 15.5313C90.638 15.9844 91.2292 16.6693 91.6719 17.5859C92.1146 18.4974 92.3359 19.6406 92.3359 21.0156C92.3359 22.3542 92.1198 23.4844 91.6875 24.4062C91.2604 25.3229 90.6771 26.0182 89.9375 26.4922C89.2031 26.9609 88.3802 27.1953 87.4688 27.1953C86.8229 27.1953 86.2734 27.0885 85.8203 26.875C85.3724 26.6615 85.0052 26.3932 84.7188 26.0703C84.4323 25.7422 84.2135 25.4115 84.0625 25.0781H83.9609V31.5H80.6328ZM83.8906 21C83.8906 21.7135 83.9896 22.3359 84.1875 22.8672C84.3854 23.3984 84.6719 23.8125 85.0469 24.1094C85.4219 24.401 85.8776 24.5469 86.4141 24.5469C86.9557 24.5469 87.4141 24.3984 87.7891 24.1016C88.1641 23.7995 88.4479 23.3828 88.6406 22.8516C88.8385 22.3151 88.9375 21.6979 88.9375 21C88.9375 20.3073 88.8411 19.6979 88.6484 19.1719C88.4557 18.6458 88.1719 18.2344 87.7969 17.9375C87.4219 17.6406 86.9609 17.4922 86.4141 17.4922C85.8724 17.4922 85.4141 17.6354 85.0391 17.9219C84.6693 18.2083 84.3854 18.6146 84.1875 19.1406C83.9896 19.6667 83.8906 20.2865 83.8906 21ZM100.023 27.2344C98.7891 27.2344 97.7266 26.9844 96.8359 26.4844C95.9505 25.9792 95.2682 25.2656 94.7891 24.3437C94.3099 23.4167 94.0703 22.3203 94.0703 21.0547C94.0703 19.8203 94.3099 18.737 94.7891 17.8047C95.2682 16.8724 95.9427 16.1458 96.8125 15.625C97.6875 15.1042 98.7135 14.8438 99.8906 14.8438C100.682 14.8438 101.419 14.9714 102.102 15.2266C102.789 15.4766 103.388 15.8542 103.898 16.3594C104.414 16.8646 104.815 17.5 105.102 18.2656C105.388 19.026 105.531 19.9167 105.531 20.9375V21.8516H95.3984V19.7891H102.398C102.398 19.3099 102.294 18.8854 102.086 18.5156C101.878 18.1458 101.589 17.8568 101.219 17.6484C100.854 17.4349 100.43 17.3281 99.9453 17.3281C99.4401 17.3281 98.9922 17.4453 98.6016 17.6797C98.2161 17.9089 97.9141 18.2187 97.6953 18.6094C97.4766 18.9948 97.3646 19.4245 97.3594 19.8984V21.8594C97.3594 22.4531 97.4688 22.9661 97.6875 23.3984C97.9115 23.8307 98.2266 24.1641 98.6328 24.3984C99.0391 24.6328 99.5208 24.75 100.078 24.75C100.448 24.75 100.786 24.6979 101.094 24.5938C101.401 24.4896 101.664 24.3333 101.883 24.125C102.102 23.9167 102.268 23.6615 102.383 23.3594L105.461 23.5625C105.305 24.3021 104.984 24.9479 104.5 25.5C104.021 26.0469 103.401 26.474 102.641 26.7813C101.885 27.0833 101.013 27.2344 100.023 27.2344ZM111.031 11V27H107.703V11H111.031ZM117.119 27.2266C116.354 27.2266 115.671 27.0938 115.072 26.8281C114.473 26.5573 113.999 26.1589 113.65 25.6328C113.307 25.1016 113.135 24.4401 113.135 23.6484C113.135 22.9818 113.257 22.4219 113.502 21.9687C113.747 21.5156 114.08 21.151 114.502 20.875C114.924 20.599 115.403 20.3906 115.939 20.25C116.481 20.1094 117.049 20.0104 117.643 19.9531C118.34 19.8802 118.903 19.8125 119.33 19.75C119.757 19.6823 120.067 19.5833 120.26 19.4531C120.452 19.3229 120.549 19.1302 120.549 18.875V18.8281C120.549 18.3333 120.393 17.9505 120.08 17.6797C119.773 17.4089 119.335 17.2734 118.768 17.2734C118.169 17.2734 117.692 17.4062 117.338 17.6719C116.984 17.9323 116.749 18.2604 116.635 18.6562L113.557 18.4062C113.713 17.6771 114.02 17.0469 114.479 16.5156C114.937 15.9792 115.528 15.5677 116.252 15.2812C116.981 14.9896 117.825 14.8438 118.783 14.8438C119.45 14.8438 120.088 14.9219 120.697 15.0781C121.312 15.2344 121.856 15.4766 122.33 15.8047C122.809 16.1328 123.187 16.5547 123.463 17.0703C123.739 17.5807 123.877 18.1927 123.877 18.9062V27H120.721V25.3359H120.627C120.434 25.7109 120.176 26.0417 119.854 26.3281C119.531 26.6094 119.143 26.8307 118.689 26.9922C118.236 27.1484 117.713 27.2266 117.119 27.2266ZM118.072 24.9297C118.562 24.9297 118.994 24.8333 119.369 24.6406C119.744 24.4427 120.038 24.1771 120.252 23.8438C120.465 23.5104 120.572 23.1328 120.572 22.7109V21.4375C120.468 21.5052 120.325 21.5677 120.143 21.625C119.965 21.6771 119.765 21.7266 119.541 21.7734C119.317 21.8151 119.093 21.8542 118.869 21.8906C118.645 21.9219 118.442 21.9505 118.26 21.9766C117.869 22.0339 117.528 22.125 117.236 22.25C116.945 22.375 116.718 22.5443 116.557 22.7578C116.395 22.9661 116.314 23.2266 116.314 23.5391C116.314 23.9922 116.479 24.3385 116.807 24.5781C117.14 24.8125 117.562 24.9297 118.072 24.9297ZM131.881 27.2344C130.652 27.2344 129.594 26.974 128.709 26.4531C127.829 25.9271 127.152 25.1979 126.678 24.2656C126.209 23.3333 125.975 22.2604 125.975 21.0469C125.975 19.8177 126.212 18.7396 126.686 17.8125C127.165 16.8802 127.844 16.1536 128.725 15.6328C129.605 15.1068 130.652 14.8438 131.865 14.8438C132.912 14.8438 133.829 15.0339 134.615 15.4141C135.402 15.7943 136.024 16.3281 136.482 17.0156C136.941 17.7031 137.193 18.5104 137.24 19.4375H134.1C134.011 18.8385 133.777 18.3568 133.396 17.9922C133.021 17.6224 132.529 17.4375 131.92 17.4375C131.404 17.4375 130.954 17.5781 130.568 17.8594C130.188 18.1354 129.891 18.5391 129.678 19.0703C129.464 19.6016 129.357 20.2448 129.357 21C129.357 21.7656 129.462 22.4167 129.67 22.9531C129.883 23.4896 130.183 23.8984 130.568 24.1797C130.954 24.4609 131.404 24.6016 131.92 24.6016C132.3 24.6016 132.641 24.5234 132.943 24.3672C133.251 24.2109 133.503 23.9844 133.701 23.6875C133.904 23.3854 134.037 23.0234 134.1 22.6016H137.24C137.188 23.5182 136.938 24.3255 136.49 25.0234C136.048 25.7161 135.436 26.2578 134.654 26.6484C133.873 27.0391 132.949 27.2344 131.881 27.2344ZM142.793 27.2266C142.027 27.2266 141.345 27.0938 140.746 26.8281C140.147 26.5573 139.673 26.1589 139.324 25.6328C138.98 25.1016 138.809 24.4401 138.809 23.6484C138.809 22.9818 138.931 22.4219 139.176 21.9687C139.421 21.5156 139.754 21.151 140.176 20.875C140.598 20.599 141.077 20.3906 141.613 20.25C142.155 20.1094 142.723 20.0104 143.316 19.9531C144.014 19.8802 144.577 19.8125 145.004 19.75C145.431 19.6823 145.741 19.5833 145.934 19.4531C146.126 19.3229 146.223 19.1302 146.223 18.875V18.8281C146.223 18.3333 146.066 17.9505 145.754 17.6797C145.447 17.4089 145.009 17.2734 144.441 17.2734C143.842 17.2734 143.366 17.4062 143.012 17.6719C142.658 17.9323 142.423 18.2604 142.309 18.6562L139.23 18.4062C139.387 17.6771 139.694 17.0469 140.152 16.5156C140.611 15.9792 141.202 15.5677 141.926 15.2812C142.655 14.9896 143.499 14.8438 144.457 14.8438C145.124 14.8438 145.762 14.9219 146.371 15.0781C146.986 15.2344 147.53 15.4766 148.004 15.8047C148.483 16.1328 148.861 16.5547 149.137 17.0703C149.413 17.5807 149.551 18.1927 149.551 18.9062V27H146.395V25.3359H146.301C146.108 25.7109 145.85 26.0417 145.527 26.3281C145.204 26.6094 144.816 26.8307 144.363 26.9922C143.91 27.1484 143.387 27.2266 142.793 27.2266ZM143.746 24.9297C144.236 24.9297 144.668 24.8333 145.043 24.6406C145.418 24.4427 145.712 24.1771 145.926 23.8438C146.139 23.5104 146.246 23.1328 146.246 22.7109V21.4375C146.142 21.5052 145.999 21.5677 145.816 21.625C145.639 21.6771 145.439 21.7266 145.215 21.7734C144.991 21.8151 144.767 21.8542 144.543 21.8906C144.319 21.9219 144.116 21.9505 143.934 21.9766C143.543 22.0339 143.202 22.125 142.91 22.25C142.618 22.375 142.392 22.5443 142.23 22.7578C142.069 22.9661 141.988 23.2266 141.988 23.5391C141.988 23.9922 142.152 24.3385 142.48 24.5781C142.814 24.8125 143.236 24.9297 143.746 24.9297ZM162.117 18.4219L159.07 18.6094C159.018 18.349 158.906 18.1146 158.734 17.9062C158.563 17.6927 158.336 17.5234 158.055 17.3984C157.779 17.2682 157.448 17.2031 157.063 17.2031C156.547 17.2031 156.112 17.3125 155.758 17.5312C155.404 17.7448 155.227 18.0312 155.227 18.3906C155.227 18.6771 155.341 18.9193 155.57 19.1172C155.799 19.3151 156.193 19.474 156.75 19.5937L158.922 20.0312C160.089 20.2708 160.958 20.6562 161.531 21.1875C162.104 21.7187 162.391 22.4167 162.391 23.2812C162.391 24.0677 162.159 24.7578 161.695 25.3516C161.237 25.9453 160.607 26.4089 159.805 26.7422C159.008 27.0703 158.089 27.2344 157.047 27.2344C155.458 27.2344 154.193 26.9036 153.25 26.2422C152.313 25.5755 151.763 24.6693 151.602 23.5234L154.875 23.3516C154.974 23.8359 155.214 24.2057 155.594 24.4609C155.974 24.7109 156.461 24.8359 157.055 24.8359C157.638 24.8359 158.107 24.724 158.461 24.5C158.82 24.2708 159.003 23.9766 159.008 23.6172C159.003 23.3151 158.875 23.0677 158.625 22.875C158.375 22.6771 157.99 22.526 157.469 22.4219L155.391 22.0078C154.219 21.7734 153.346 21.3672 152.773 20.7891C152.206 20.2109 151.922 19.474 151.922 18.5781C151.922 17.8073 152.13 17.1432 152.547 16.5859C152.969 16.0286 153.56 15.599 154.32 15.2969C155.086 14.9948 155.982 14.8438 157.008 14.8438C158.523 14.8438 159.716 15.1641 160.586 15.8047C161.461 16.4453 161.971 17.3177 162.117 18.4219ZM170.869 15V17.5H163.643V15H170.869ZM165.283 12.125H168.611V23.3125C168.611 23.6198 168.658 23.8594 168.752 24.0312C168.846 24.1979 168.976 24.3151 169.143 24.3828C169.314 24.4505 169.512 24.4844 169.736 24.4844C169.893 24.4844 170.049 24.4714 170.205 24.4453C170.361 24.4141 170.481 24.3906 170.564 24.375L171.088 26.8516C170.921 26.9036 170.687 26.9635 170.385 27.0313C170.083 27.1042 169.715 27.1484 169.283 27.1641C168.481 27.1953 167.778 27.0885 167.174 26.8437C166.575 26.599 166.109 26.2187 165.775 25.7031C165.442 25.1875 165.278 24.5365 165.283 23.75V12.125Z" fill="white"/>
<path d="M38.125 19.8876C38.1494 23.0542 37.3398 26.1714 35.7774 28.9259C35.575 29.2837 35.3607 29.6337 35.1344 29.9759C35.0225 30.1498 34.8772 30.2998 34.7069 30.4171C34.5367 30.5345 34.3448 30.6169 34.1424 30.6595C33.94 30.7021 33.7312 30.7041 33.5281 30.6655C33.3249 30.6268 33.1315 30.5482 32.9589 30.4341C32.7864 30.3201 32.6382 30.173 32.523 30.0013C32.4077 29.8296 32.3277 29.6367 32.2875 29.4338C32.2474 29.231 32.2479 29.0222 32.2891 28.8195C32.3303 28.6168 32.4113 28.4243 32.5274 28.2532C34.0185 25.9897 34.8685 23.3644 34.987 20.6564C35.1054 17.9484 34.4879 15.2589 33.2001 12.8738C31.9123 10.4887 30.0022 8.49708 27.673 7.11069C25.3438 5.7243 22.6825 4.99493 19.9719 5.0001C14.7618 5.01026 10.1422 7.74541 7.45706 11.8321C5.85189 14.2703 4.99772 17.1259 5.0005 20.045C5.00327 22.9641 5.86288 25.8182 7.47269 28.2532C7.70092 28.5991 7.78239 29.0216 7.69917 29.4275C7.61595 29.8335 7.37486 30.1898 7.02894 30.4181C6.68302 30.6463 6.2606 30.7278 5.85461 30.6445C5.44863 30.5613 5.09233 30.3202 4.8641 29.9743C3.0791 27.2655 2.05381 24.1272 1.89521 20.887C1.73662 17.6468 2.45053 14.4235 3.96245 11.5533C5.47437 8.68306 7.72889 6.27121 10.4907 4.56941C13.2526 2.86761 16.4206 1.93822 19.6641 1.87822C19.7782 1.87588 19.8914 1.8751 20.0047 1.8751C24.7949 1.86523 29.3933 3.75637 32.7905 7.13341C36.1878 10.5105 38.1063 15.0975 38.125 19.8876V19.8876Z" fill="#494D4B"/>
<path d="M9.06588 22.7944L11.8978 36.8819C12.0678 37.7276 12.8911 38.2753 13.7368 38.1053C14.5825 37.9353 15.1303 37.1119 14.9603 36.2663L12.1284 22.1788C11.9584 21.3331 11.135 20.7853 10.2893 20.9553C9.44363 21.1253 8.89588 21.9487 9.06588 22.7944Z" fill="#04D361"/>
<path d="M11.8438 36.5641L11.1258 36.7086C10.059 36.9234 8.95038 36.7225 8.02677 36.147C7.10316 35.5715 6.43432 34.6648 6.15706 33.6125C6.13597 33.5312 6.11644 33.45 6.10003 33.3672L5.07112 28.2555C4.84815 27.1458 5.07485 25.9931 5.70141 25.0506C6.32796 24.108 7.3031 23.4528 8.41253 23.2289L9.1305 23.0844L10.3899 29.3406L11.8438 36.5641Z" fill="#494D4B"/>
<path d="M11.8438 36.5641L11.1259 36.7086C10.059 36.9234 8.95043 36.7225 8.02682 36.147C7.1032 35.5715 6.43437 34.6649 6.1571 33.6125C7.67448 32.2981 9.08951 30.87 10.3899 29.3407L11.8438 36.5641Z" fill="#494D4B"/>
<path d="M36.1477 27.0875L35.7774 28.9258C35.575 29.2836 35.3607 29.6336 35.1344 29.9758C35.0225 30.1497 34.8772 30.2997 34.7069 30.417C34.5366 30.5344 34.3448 30.6168 34.1424 30.6594C33.94 30.702 33.7312 30.7041 33.5281 30.6654C33.3249 30.6267 33.1315 30.5481 32.9589 30.4341C32.7864 30.3201 32.6382 30.1729 32.5229 30.0012C32.4077 29.8295 32.3277 29.6366 32.2875 29.4338C32.2474 29.2309 32.2479 29.0221 32.2891 28.8194C32.3303 28.6167 32.4112 28.4243 32.5274 28.2531C33.5865 26.6502 34.3258 24.8577 34.7047 22.9742C35.2927 23.4668 35.7371 24.1089 35.991 24.8327C36.245 25.5566 36.2991 26.3355 36.1477 27.0875Z" fill="#494D4B"/>
<path d="M34.2953 8.8297L32.0539 11.0711C30.6573 9.1825 28.836 7.64891 26.7371 6.59426C24.6383 5.53961 22.3208 4.99349 19.9719 5.00001C14.7617 5.01017 10.1422 7.74533 7.45703 11.832L5.18359 9.55861C6.82274 7.22937 8.98843 5.31984 11.5046 3.98526C14.0207 2.65069 16.8163 1.92875 19.6641 1.87814C19.7781 1.8758 19.8914 1.87501 20.0047 1.87501C22.7591 1.86884 25.4786 2.49223 27.9553 3.69756C30.4321 4.90289 32.6006 6.65829 34.2953 8.8297V8.8297Z" fill="#8257E5"/>
<path d="M27.8464 22.1635L25.0145 36.251C24.8445 37.0967 25.3922 37.9201 26.2379 38.0901C27.0836 38.2601 27.907 37.7123 28.077 36.8666L30.9089 22.7791C31.0789 21.9335 30.5311 21.1101 29.6854 20.9401C28.8397 20.7701 28.0164 21.3178 27.8464 22.1635Z" fill="#04D361"/>
<path d="M34.9289 28.2555L33.9 33.3672C33.6766 34.4767 33.0216 35.4521 32.0791 36.0787C31.1366 36.7054 29.9838 36.9319 28.8742 36.7086L28.1562 36.564L28.9 32.8711L30.8695 23.0844L31.5875 23.2289C32.6968 23.4531 33.672 24.108 34.2992 25.05C34.3856 25.1798 34.4646 25.3144 34.5359 25.4531C34.9817 26.3154 35.1203 27.3038 34.9289 28.2555V28.2555Z" fill="#494D4B"/>
<path d="M34.9289 28.2555L33.9 33.3672C33.6766 34.4767 33.0216 35.4521 32.0791 36.0787C31.1366 36.7054 29.9838 36.9319 28.8742 36.7086L28.1562 36.5641L28.9 32.8711C31.0403 30.6086 32.9299 28.1215 34.5359 25.4531C34.9817 26.3154 35.1203 27.3038 34.9289 28.2555V28.2555Z" fill="#494D4B"/>
</svg>
